<?xml version="1.0" encoding="UTF-8" standalone="no"?>
<svg
   version="1.0"
   width="474"
   height="471"
   id="svg4"
   sodipodi:docname="greenonblackairplane.svg"
   inkscape:version="1.1.2 (0a00cf5339, 2022-02-04)"
   xmlns:inkscape="http://www.inkscape.org/namespaces/inkscape"
   xmlns:sodipodi="http://sodipodi.sourceforge.net/DTD/sodipodi-0.dtd"
   xmlns="http://www.w3.org/2000/svg"
   xmlns:svg="http://www.w3.org/2000/svg">
  <defs
     id="defs8" />
  <sodipodi:namedview
     id="namedview6"
     pagecolor="#ffffff"
     bordercolor="#666666"
     borderopacity="1.0"
     inkscape:pageshadow="2"
     inkscape:pageopacity="0.0"
     inkscape:pagecheckerboard="0"
     showgrid="false"
     width="474px"
     units="px"
     inkscape:zoom="1.4540441"
     inkscape:cx="354.52845"
     inkscape:cy="240.3641"
     inkscape:window-width="1920"
     inkscape:window-height="966"
     inkscape:window-x="0"
     inkscape:window-y="40"
     inkscape:window-maximized="1"
     inkscape:current-layer="layer1" />
  <g
     inkscape:groupmode="layer"
     id="layer1"
     inkscape:label="circle">
    <ellipse
       style="opacity:0.99;fill:#ffffff;fill-opacity:0.89657837;stroke:#000000;stroke-width:16;stroke-miterlimit:4;stroke-dasharray:none;stroke-opacity:0.296489"
       id="path844"
       cx="238.02936"
       cy="236.50279"
       rx="235.06233"
       ry="232.31337" />
  </g>
  <path
     style="fill:#70fa27;fill-opacity:1;stroke:#000000;stroke-width:7.428;stroke-miterlimit:4;stroke-dasharray:none;stroke-opacity:1"
     d="m 237.42652,26.271523 c 1.83859,0 2.92231,1.613648 6.59935,14.327193 0.4257,1.466951 1.31591,7.897072 1.31591,7.897072 0,0 2.94164,0.171154 3.67709,0.171154 1.49003,0 3.4835,1.662541 4.45115,3.667373 3.09647,6.283425 7.9347,40.830064 7.9347,56.722015 0,9.90188 0.63871,15.8186 1.85781,17.01659 1.02571,1.00242 6.42519,4.10747 11.99883,6.89467 9.79255,4.88983 12.25041,5.15875 83.12082,9.97525 56.12347,3.78961 73.79269,5.59886 76.44405,7.72592 7.3154,5.8678 7.70246,19.53486 1.25799,45.30428 l -3.32871,13.32476 -172.76357,36.28253 -14.51468,134.78814 3.83188,1.36914 c 2.12881,0.73348 16.29514,2.71386 31.50654,4.40085 15.23076,1.66255 28.52623,3.91186 29.59062,5.03653 4.21895,4.44974 0.90969,39.55872 -3.75446,39.55872 -7.33477,0 -34.46755,4.64534 -35.89967,6.11227 -1.00627,1.07577 -24.346,5.06099 -33.32575,5.06099 -8.97975,0 -32.31938,-3.98522 -33.32574,-5.06099 -1.43213,-1.46693 -28.56491,-6.11227 -35.89968,-6.11227 -4.64469,0 -7.97339,-35.10898 -3.75447,-39.55872 1.06443,-1.10022 14.35989,-3.37398 29.59065,-5.03653 15.2114,-1.68699 29.39708,-3.66737 31.50653,-4.40085 l 3.83198,-1.36914 L 214.86101,245.58033 42.097446,209.2978 38.768742,195.94857 c -6.444523,-25.76939 -6.057464,-39.36311 1.257941,-45.27981 2.651351,-2.12706 20.320572,-3.91187 76.444047,-7.72592 70.87041,-4.81651 73.3476,-5.10986 83.14016,-9.97526 5.5543,-2.78719 10.95379,-5.89224 11.97949,-6.89466 1.21921,-1.22244 1.87722,-7.11471 1.87722,-16.99214 0,-15.891957 4.81889,-50.46304 7.896,-56.72202 1.00635,-2.029277 2.98036,-3.691818 4.45118,-3.691818 0.77411,0 3.65767,-0.171154 3.65767,-0.171154 0,0 0.87101,-6.405675 1.31612,-7.897072 3.67697,-12.713545 4.79945,-14.327193 6.63795,-14.327193 z"
     id="path2" />
</svg>
